<?xml version="1.0" encoding="utf-8"?>
<!-- Generator: Adobe Illustrator 22.1.0, SVG Export Plug-In . SVG Version: 6.00 Build 0)  -->
<svg version="1.1" id="Ebene_1" xmlns="http://www.w3.org/2000/svg" xmlns:xlink="http://www.w3.org/1999/xlink" x="0px" y="0px"
	 viewBox="0 0 24 24" style="enable-background:new 0 0 24 24;" xml:space="preserve">
<style type="text/css">
	.st0{fill:#FFFFFF;}
</style>
<path class="st0" d="M13,5V3.3l2.8-2.8C16.2,0.7,16.6,0.9,17,1C17,1,13,5,13,5z M20.1,3.1L13,10.1V11h0.9l7-7.1
	C20.7,3.6,20.4,3.3,20.1,3.1z M13,1.6l1.4-1.4C14,0.1,13.5,0,13,0V1.6z M23.8,9.6L22.4,11H24C24,10.5,23.9,10,23.8,9.6z M23.4,8.2
	C23.3,7.8,23.1,7.4,23,7l-4,4h1.7L23.4,8.2z M22.4,5.9c-0.2-0.3-0.4-0.7-0.7-1L15.6,11h1.7C17.3,11,22.4,5.9,22.4,5.9z M19.1,2.3
	c-0.3-0.2-0.7-0.5-1-0.7L13,6.7v1.7C13,8.4,19.1,2.3,19.1,2.3z M11,13V0C4.8,0.5,0,5.7,0,12c0,6.6,5.4,12,12,12
	c6.3,0,11.5-4.8,12-11H11z"/>
</svg>
