<?xml version="1.0" encoding="utf-8"?>
<!-- Generator: Adobe Illustrator 22.1.0, SVG Export Plug-In . SVG Version: 6.00 Build 0)  -->
<svg version="1.1" id="Ebene_1" xmlns="http://www.w3.org/2000/svg" xmlns:xlink="http://www.w3.org/1999/xlink" x="0px" y="0px"
	 viewBox="0 0 24 24" style="enable-background:new 0 0 24 24;" xml:space="preserve">
<style type="text/css">
	.st0{fill:#FFFFFF;}
</style>
<path class="st0" d="M16,1c0,0.6-0.4,1-1,1H9C8.4,2,8,1.6,8,1s0.4-1,1-1h6C15.6,0,16,0.4,16,1z M20.8,20.5L17,12.6c-1-2.2-2-4.6-2-7
	V4h-2v2c0.1,2.7,1.2,5.3,2.2,7.5l3.7,7.9c0.1,0.3-0.1,0.6-0.4,0.6H5.4c-0.3,0-0.5-0.3-0.4-0.6l3.7-7.9c1-2.2,2.1-4.8,2.2-7.5l0-2H9
	v1.6c0,2.4-1,4.8-2,7l-3.7,7.9C3.1,20.8,3,21.2,3,21.6C3,22.8,4,24,5.4,24h13.2c1.4,0,2.4-1.2,2.4-2.4C21,21.2,20.9,20.8,20.8,20.5z
	 M11,19.5c0-0.8-0.7-1.5-1.5-1.5S8,18.7,8,19.5S8.7,21,9.5,21S11,20.3,11,19.5z M13,16c0-0.6-0.4-1-1-1c-0.6,0-1,0.4-1,1
	c0,0.6,0.4,1,1,1C12.6,17,13,16.6,13,16z M16,19c0-0.6-0.4-1-1-1c-0.6,0-1,0.4-1,1s0.4,1,1,1C15.6,20,16,19.6,16,19z"/>
</svg>
