<?xml version="1.0" encoding="utf-8"?>
<!-- Generator: Adobe Illustrator 22.1.0, SVG Export Plug-In . SVG Version: 6.00 Build 0)  -->
<svg version="1.1" id="Ebene_1" xmlns="http://www.w3.org/2000/svg" xmlns:xlink="http://www.w3.org/1999/xlink" x="0px" y="0px"
	 viewBox="0 0 24 24" style="enable-background:new 0 0 24 24;" xml:space="preserve">
<style type="text/css">
	.st0{fill:#FFFFFF;}
</style>
<path class="st0" d="M16.5,20l3.4,4h-2.6l-3.4-4C13.9,20,16.5,20,16.5,20z M18,6h-4v1h4V6z M11,24h2v-4h-2V24z M4.1,24h2.6l3.4-4
	H7.5C7.5,20,4.1,24,4.1,24z M18,8h-4v1h4V8z M18,10h-4v1h4V10z M9.5,13c1.8,0,3.2-1.3,3.4-3H9V6.1C7.3,6.3,6,7.7,6,9.5
	C6,11.4,7.6,13,9.5,13z M10,6.1V9h2.9C12.7,7.5,11.5,6.3,10,6.1z M18,12h-4v1h4V12z M23,3h-1v15H2V3H1V0h22V3z M20,3H4v13h16V3z"/>
</svg>
