<?xml version="1.0" encoding="utf-8"?>
<!-- Generator: Adobe Illustrator 22.1.0, SVG Export Plug-In . SVG Version: 6.00 Build 0)  -->
<svg version="1.1" id="Ebene_1" xmlns="http://www.w3.org/2000/svg" xmlns:xlink="http://www.w3.org/1999/xlink" x="0px" y="0px"
	 viewBox="0 0 24 24" style="enable-background:new 0 0 24 24;" xml:space="preserve">
<style type="text/css">
	.st0{fill:#FFFFFF;}
</style>
<path class="st0" d="M22,8v12H6V8H22z M24,6H4v16h20V6z M16,17.7V18H8v-0.3c0-0.9,0-1.4,1.1-1.6c1.1-0.3,2.2-0.5,1.7-1.5
	C9.2,11.6,10.3,10,12,10c1.7,0,2.8,1.6,1.2,4.6c-0.5,1,0.6,1.2,1.7,1.5C16,16.3,16,16.8,16,17.7z M20,10h-3v2h3V10z M20,13h-3v2h3
	V13z M20,16h-3v2h3V16z M22,4H2v16h1V5h19V4z M20,2H0v16h1V3h19V2z"/>
</svg>
