<?xml version="1.0" encoding="utf-8"?>
<!-- Generator: Adobe Illustrator 22.1.0, SVG Export Plug-In . SVG Version: 6.00 Build 0)  -->
<svg version="1.1" id="Ebene_1" xmlns="http://www.w3.org/2000/svg" xmlns:xlink="http://www.w3.org/1999/xlink" x="0px" y="0px"
	 viewBox="0 0 24 24" style="enable-background:new 0 0 24 24;" xml:space="preserve">
<style type="text/css">
	.st0{fill:#FFFFFF;}
</style>
<path class="st0" d="M24,8v2h-0.6c-0.5,0-1,0.3-1.3,0.8L18,21H6L1.9,10.8C1.7,10.3,1.2,10,0.6,10H0V8h3l4.4,11h9.3L21,8H24z
	 M7.6,10.6L6.5,11l3.6,2.8l0.6-4.6L9.7,9.7c0,0-3-6.8-7.1-6.8C5.6,4.5,7.6,10.6,7.6,10.6z M20.9,2.1c-4.1,0.5-6.3,7.5-6.3,7.5
	l-1.1-0.3l1.1,4.5l3.3-3.2l-1.1-0.3C16.8,10.3,18.1,4,20.9,2.1z"/>
</svg>
