<?xml version="1.0" encoding="utf-8"?>
<!-- Generator: Adobe Illustrator 22.1.0, SVG Export Plug-In . SVG Version: 6.00 Build 0)  -->
<svg version="1.1" id="Ebene_1" xmlns="http://www.w3.org/2000/svg" xmlns:xlink="http://www.w3.org/1999/xlink" x="0px" y="0px"
	 viewBox="0 0 24 24" style="enable-background:new 0 0 24 24;" xml:space="preserve">
<style type="text/css">
	.st0{fill:#FFFFFF;}
</style> 
<path class="st0" d="M18.5,3h-13L0,12v9h24v-9L18.5,3z M2,19l0-7l4.6-7h10.8l4.6,7v7H2z"/>
<path class="st0" d="M19,12c-4.5-1.5-9.5-1.5-14,0c0.1-0.4,0.2-0.8,0.3-1.1c4.4-1.3,9-1.3,13.4,0C18.8,11.2,18.9,11.6,19,12z"/>
<path class="st0" d="M17.8,10C14,8.8,10,8.8,6.2,10c0.1-0.4,0.2-0.8,0.3-1.1c3.6-1,7.4-1,10.9,0C17.6,9.2,17.7,9.6,17.8,10z"/>
<path class="st0" d="M16.6,8c-3-1-6.2-1-9.1,0c0.1-0.4,0.2-0.8,0.3-1.1c2.8-0.8,5.7-0.8,8.5,0C16.4,7.2,16.5,7.6,16.6,8z"/>
</svg>
