<?xml version="1.0" encoding="utf-8"?>
<!-- Generator: Adobe Illustrator 22.1.0, SVG Export Plug-In . SVG Version: 6.00 Build 0)  -->
<svg version="1.1" id="barn_only" xmlns="http://www.w3.org/2000/svg" xmlns:xlink="http://www.w3.org/1999/xlink" x="0px" y="0px"
	 viewBox="0 0 541.8 330" style="enable-background:new 0 0 541.8 330;" xml:space="preserve">
<style type="text/css">
	.st0{fill:#FFFFFF;}
	.st1{fill:#FFFFFF;}
	.st2{fill:#FFFFFF;}
	.st3{fill:#FFFFFF;}
	.st4{fill:#FFFFFF;}
	.st5{fill:#FFFFFF;}
	.st6{fill:#AAAAAA;}
</style>
<g>
	<path class="st0" d="M210.7,140.7c0,8.6,0,17.3,0,25.9c0,0.5-0.1,0.9-0.2,1.3h3v-19.8C213.5,145.4,212.5,142.9,210.7,140.7z"/>
	<path class="st1" d="M221.7,167.9h51.6c0-2.4-0.2-4.7-0.3-7h-24.4c-1.4,0-2.5-0.7-2.5-1.7c0-1,1.1-1.7,2.5-1.7h24.2
		c-1.9-19.4-8.1-32.3-13.4-40.3c-4.3-4.3-9.2-8.4-14.6-12.2c-24-16.6-55.8-25.8-89.8-25.8c-21.5,0-41.8,3.8-59.5,10.3
		c0,0-44.3,22.4-52,68h96.1c1.4,0,2.5,0.7,2.5,1.7c0,1-1.1,1.7-2.5,1.7H42.8c-0.3,2.2-0.5,4.6-0.6,7h120.2 M238.3,129.5
		c-4.5,0-4.5-4.8,0-4.8C242.8,124.7,242.8,129.5,238.3,129.5z M202.4,94.3c13.8,3.9,25.1,10.4,33,19.3c2.3,2.6-3.7,5-6,2.4
		c-6.8-7.7-16.7-13.7-28.8-17C196.5,97.7,198.3,93.1,202.4,94.3z"/>
	<path class="st2" d="M244.1,185.3h31c0-4.1,0-8.1,0-11.8H41.7v11.8h20.9c1.4,0,2.5,0.7,2.5,1.7c0,1-1.1,1.7-2.5,1.7H41.7v112h4.5
		h59.8h169.2c0-14.4,0-71,0-112h-31c-1.4,0-2.5-0.7-2.5-1.7C241.6,186.1,242.7,185.3,244.1,185.3z M87.3,188.7h-9.4
		c-1.4,0-2.5-0.7-2.5-1.7c0-1,1.1-1.7,2.5-1.7h9.3c1.4,0,2.5,0.7,2.5,1.7C89.8,188,88.7,188.7,87.3,188.7z M225.6,188.7H104.8
		c-1.4,0-2.5-0.7-2.5-1.7c0-1,1.1-1.7,2.5-1.7h120.8c1.4,0,2.5,0.7,2.5,1.7S227,188.7,225.6,188.7z"/>
	<path class="st3" d="M281.1,157.6c-2.3-14.6-9.8-28.3-21.8-40.3c5.3,7.9,11.4,21,13.4,40.3H281.1z"/>
	<path class="st3" d="M281.9,167.9v-0.4c0-2.2-0.2-4.3-0.4-6.5H273c0.2,2.2,0.2,4.6,0.3,7L281.9,167.9L281.9,167.9z"/>
	<path class="st4" d="M281.9,185.3v-11.8h-8.6c0,3.7,0,7.6,0,11.8H281.9z"/>
	<path class="st4" d="M281.9,300.7v-112h-8.6c0,41,0,97.6,0,112H281.9z"/>
	<path class="st3" d="M28.3,161c-0.2,2.2-0.4,4.3-0.4,6.5v0.4h14.4c0.1-2.4,0.3-4.6,0.6-7L28.3,161L28.3,161z"/>
	<path class="st3" d="M95.4,89.7c-36.2,13.4-61.9,38.5-66.7,68h14.6C51.1,112,95.4,89.7,95.4,89.7z"/>
	<path class="st5" d="M42.2,188.7h-3.8c-1.4,0-2.5-0.7-2.5-1.7c0-1,1.1-1.7,2.5-1.7h3.8v-11.8H27.9v127.1h14.3V188.7z"/>
	<path class="st0" d="M200.6,98.9c12.1,3.4,22,9.4,28.8,17c2.3,2.6,8.3,0.2,6-2.4c-7.8-8.8-19.1-15.4-33-19.3
		C198.3,93.1,196.5,97.7,200.6,98.9z"/>
	<path class="st0" d="M238.3,129.5c4.5,0,4.5-4.8,0-4.8C233.9,124.7,233.9,129.5,238.3,129.5z"/>
	<path class="st6" d="M302.8,310.3c0-5-5.6-9.2-12.7-9.6V167.5c0-25-14.1-48.6-39.6-66.3c-25.5-17.8-59.4-27.5-95.6-27.5
		c-74.6,0-135.2,42.1-135.2,93.8v133.3c-7.1,0.3-12.7,4.5-12.7,9.5 M46.6,300.7h-4.4H27.9V173.6h14.3h231.1h8.6v11.8h-8.6h-30.7
		c-1.4,0-2.5,0.7-2.5,1.7c0,1,1.1,1.7,2.5,1.7h30.7h8.6v112h-8.6H105.8 M162.5,167.9H42.3H27.9v-0.4c0-2.2,0.2-4.3,0.4-6.5h14.6
		h96.6c1.4,0,2.5-0.7,2.5-1.7c0-1-1.1-1.7-2.5-1.7h-96H28.7c4.8-29.4,30.6-54.6,66.7-68c17.8-6.6,38-10.3,59.5-10.3
		c33.9,0,65.8,9.2,89.8,25.8c5.4,3.8,10.3,7.8,14.6,12.2c12,11.9,19.4,25.8,21.8,40.3h-8.4h-24.2c-1.4,0-2.5,0.7-2.5,1.7
		c0,1,1.1,1.7,2.5,1.7h24.5h8.6c0.2,2.2,0.4,4.3,0.4,6.5v0.4h-8.6h-51.6"/>
	<path class="st6" d="M65.3,187c0-1-1.1-1.7-2.5-1.7H42.2h-3.8c-1.4,0-2.5,0.7-2.5,1.7c0,1,1.1,1.7,2.5,1.7h3.8h20.7
		C64.3,188.7,65.3,188,65.3,187z"/>
	<path class="st6" d="M78.1,188.7h9.2c1.4,0,2.5-0.7,2.5-1.7c0-1-1.1-1.7-2.5-1.7h-9.2c-1.4,0-2.5,0.7-2.5,1.7
		S76.7,188.7,78.1,188.7z"/>
	<path class="st6" d="M104.7,188.7h120.9c1.4,0,2.5-0.7,2.5-1.7c0-1-1.1-1.7-2.5-1.7H104.7c-1.4,0-2.5,0.7-2.5,1.7
		S103.4,188.7,104.7,188.7z"/>
</g>
<g>
	<path class="st0" d="M426.6,97.9c0,10.8,0,21.6,0,32.4c0,0.6-0.1,1.1-0.3,1.6h3.8v-24.8C430.2,103.8,428.9,100.7,426.6,97.9z"/>
	<path class="st1" d="M440.4,131.9h64.5c0-3-0.2-5.9-0.4-8.7H474c-1.7,0-3.1-0.9-3.1-2.1s1.4-2.1,3.1-2.1h30.2
		c-2.4-24.2-10.1-40.4-16.7-50.4c-5.4-5.4-11.5-10.5-18.3-15.2c-30-20.8-69.8-32.3-112.3-32.3c-26.9,0-52.2,4.7-74.4,12.9
		c0,0-55.4,28-65,85h120.1c1.7,0,3.1,0.9,3.1,2.1s-1.4,2.1-3.1,2.1H216.8c-0.4,2.8-0.6,5.7-0.7,8.7h150.3 M461.2,83.9
		c-5.6,0-5.6-6,0-6C466.8,77.9,466.8,83.9,461.2,83.9z M416.3,39.9c17.3,4.9,31.4,13,41.2,24.1c2.9,3.3-4.6,6.3-7.5,3
		c-8.5-9.6-20.9-17.1-36-21.3C408.9,44.2,411.2,38.4,416.3,39.9z"/>
	<path class="st2" d="M468.4,153.7h38.8c0-5.1,0-10.1,0-14.7H215.4v14.7h26.1c1.7,0,3.1,0.9,3.1,2.1c0,1.2-1.4,2.1-3.1,2.1h-26.1
		v140h5.6h74.7h211.5c0-18,0-88.8,0-140h-38.8c-1.7,0-3.1-0.9-3.1-2.1C465.3,154.6,466.7,153.7,468.4,153.7z M272.4,157.9h-11.7
		c-1.7,0-3.1-0.9-3.1-2.1c0-1.2,1.4-2.1,3.1-2.1h11.6c1.7,0,3.1,0.9,3.1,2.1C275.5,157,274.1,157.9,272.4,157.9z M445.3,157.9h-151
		c-1.7,0-3.1-0.9-3.1-2.1c0-1.2,1.4-2.1,3.1-2.1h151c1.7,0,3.1,0.9,3.1,2.1S447,157.9,445.3,157.9z"/>
	<path class="st3" d="M514.7,119c-2.9-18.2-12.2-35.4-27.2-50.4c6.6,9.9,14.3,26.2,16.7,50.4H514.7z"/>
	<path class="st3" d="M515.7,131.9v-0.5c0-2.7-0.2-5.4-0.5-8.1h-10.7c0.2,2.8,0.3,5.7,0.4,8.7h10.8V131.9z"/>
	<path class="st4" d="M515.7,153.7V139h-10.8c0,4.6,0,9.5,0,14.7H515.7z"/>
	<path class="st4" d="M515.7,297.9v-140h-10.8c0,51.2,0,122,0,140H515.7z"/>
	<path class="st3" d="M198.6,123.3c-0.3,2.7-0.5,5.4-0.5,8.1v0.5h18c0.1-3,0.4-5.8,0.7-8.7L198.6,123.3L198.6,123.3z"/>
	<path class="st3" d="M282.5,34.1c-45.2,16.7-77.4,48.1-83.4,85h18.3C227.1,62,282.5,34.1,282.5,34.1z"/>
	<path class="st5" d="M216,157.9h-4.7c-1.7,0-3.1-0.9-3.1-2.1c0-1.2,1.4-2.1,3.1-2.1h4.7V139h-17.9v158.9H216V157.9z"/>
	<path class="st0" d="M414,45.7c15.1,4.3,27.5,11.7,36,21.3c2.9,3.3,10.4,0.3,7.5-3c-9.8-11-23.9-19.2-41.2-24.1
		C411.2,38.4,408.9,44.2,414,45.7z"/>
	<path class="st0" d="M461.2,83.9c5.6,0,5.6-6,0-6S455.6,83.9,461.2,83.9z"/>
	<path class="st6" d="M541.8,309.9c0-6.3-7-11.5-15.9-12V131.4c0-31.3-17.6-60.8-49.5-82.9c-31.9-22.2-74.3-34.4-119.5-34.4
		c-93.2,0-169,52.6-169,117.3V298c-8.9,0.4-15.9,5.6-15.9,11.9 M221.5,297.9H216h-17.9V139H216h288.9h10.8v14.7h-10.8h-38.4
		c-1.7,0-3.1,0.9-3.1,2.1c0,1.2,1.4,2.1,3.1,2.1h38.4h10.8v140h-10.8H295.5 M366.4,131.9H216.1h-18v-0.5c0-2.7,0.2-5.4,0.5-8.1h18.2
		h120.7c1.7,0,3.1-0.9,3.1-2.1s-1.4-2.1-3.1-2.1h-120h-18.4c6-36.8,38.2-68.3,83.4-85c22.2-8.2,47.5-12.9,74.4-12.9
		c42.4,0,82.3,11.5,112.3,32.3c6.8,4.7,12.9,9.8,18.3,15.2c15,14.9,24.3,32.2,27.2,50.4h-10.5H474c-1.7,0-3.1,0.9-3.1,2.1
		s1.4,2.1,3.1,2.1h30.6h10.7c0.3,2.7,0.5,5.4,0.5,8.1v0.5H505h-64.5"/>
	<path class="st6" d="M244.9,155.8c0-1.2-1.4-2.1-3.1-2.1H216h-4.7c-1.7,0-3.1,0.9-3.1,2.1c0,1.2,1.4,2.1,3.1,2.1h4.7h25.9
		C243.6,157.9,244.9,157,244.9,155.8z"/>
	<path class="st6" d="M260.9,157.9h11.5c1.7,0,3.1-0.9,3.1-2.1c0-1.2-1.4-2.1-3.1-2.1h-11.5c-1.7,0-3.1,0.9-3.1,2.1
		S259.2,157.9,260.9,157.9z"/>
	<path class="st6" d="M294.2,157.9h151.1c1.7,0,3.1-0.9,3.1-2.1c0-1.2-1.4-2.1-3.1-2.1H294.2c-1.7,0-3.1,0.9-3.1,2.1
		S292.5,157.9,294.2,157.9z"/>
</g>
</svg>
