<?xml version="1.0" encoding="utf-8"?>
<!-- Generator: Adobe Illustrator 22.1.0, SVG Export Plug-In . SVG Version: 6.00 Build 0)  -->
<svg version="1.1" id="Ebene_1" xmlns="http://www.w3.org/2000/svg" xmlns:xlink="http://www.w3.org/1999/xlink" x="0px" y="0px"
	 viewBox="0 0 24 24" style="enable-background:new 0 0 24 24;" xml:space="preserve">
<style type="text/css">
	.st0{fill:#FFFFFF;}
</style>
<path class="st0" d="M9.2,6.6c-0.1,0-0.3,0-0.4,0.1C8.6,6.8,8.6,6.9,8.9,7.2C9,7,9.1,6.8,9.2,6.6z M10.9,7.4c0,0,0-0.1,0-0.1
	c-0.2-0.1-0.4-0.1-0.5-0.1c-0.1,0-0.1,0.3-0.2,0.4c0,0,0.1,0,0.1,0.1C10.5,7.5,10.7,7.4,10.9,7.4z M9.6,9.4C9.5,9.1,9.4,8.9,9.2,8.7
	C8.9,9.1,9,9.3,9.6,9.4z M11.6,8.3c0.1,0,0.3,0,0.4,0c0,0,0.1-0.1,0.1-0.1c-0.2-0.2-0.4-0.4-0.6-0.6c0,0-0.1,0.1-0.1,0.1
	C11.5,7.9,11.6,8.1,11.6,8.3z M9,8.2c-0.2,0-0.3,0-0.4,0.1C8.3,8.5,8.3,8.8,8.6,9C8.7,8.8,8.8,8.6,9,8.2z M8.7,7.6
	C8.6,7.5,8.5,7.4,8.4,7.3C8.3,7.5,8.2,7.6,8.2,7.7c0,0.3,0.2,0.5,0.6,0.4C8.7,7.9,8.7,7.8,8.7,7.6z M11,8.5c0,0,0.3-0.2,0.2-0.2
	c-0.1-0.2-0.2-0.4-0.3-0.5c0,0-0.2,0.1-0.4,0.2C10.7,8.2,10.8,8.4,11,8.5z M13,9.3c0.1-0.5-0.1-0.9-0.7-0.8c0.1,0.1,0.2,0.2,0.2,0.4
	c0.1,0.1,0.1,0.3,0.1,0.4C12.8,9.2,12.9,9.3,13,9.3z M9.9,7.4C9.8,7.2,9.6,7,9.3,7.2C9.1,7.3,8.9,7.5,9.1,7.9
	C9.4,7.7,9.6,7.6,9.9,7.4z M9.3,9.8C9.2,9.7,9,9.6,8.8,9.5c-0.3,0.4-0.2,0.7,0.3,0.9C9.2,10.2,9.3,10,9.3,9.8z M9.9,9.9
	c-0.1,0-0.3,0.4-0.3,0.5c0.1,0.3,0.3,0.4,0.7,0.2C10.1,10.4,10.4,9.9,9.9,9.9z M14,10.2c0-0.2,0-0.4,0-0.5c-0.1-0.3-0.4-0.4-0.7-0.3
	c0.1,0.3,0.2,0.5,0.4,0.9C13.7,10.2,14,10.2,14,10.2z M9.4,8.3c-0.1,0.1-0.1,0.3,0,0.3c0,0,0.1,0.1,0.1,0.1c0.2,0.1,0.5,0,0.7-0.1
	c0.2-0.1,0.3-0.4,0.3-0.6c0,0,0-0.1,0-0.1c0,0-0.1-0.1-0.1-0.1C9.8,7.6,9.6,7.9,9.4,8.3z M9.7,12.6c0.1,0.3,0.4,0.4,0.7,0.3
	c0-0.2,0.1-0.4,0.1-0.6c-0.2-0.2-0.4-0.3-0.7-0.5C9.7,12.1,9.6,12.3,9.7,12.6z M9.1,11.4c0.1,0.2,0.4,0.3,0.6,0.5
	c0-0.3,0.1-0.5,0.1-0.7c-0.2-0.2-0.4-0.3-0.6-0.4c-0.1,0-0.1,0-0.2,0C9.1,10.9,9,11.2,9.1,11.4z M10.5,10.9c-0.1,0-0.2,0-0.2,0
	c0,0-0.1,0-0.1,0c0,0,0,0.1,0,0.1c-0.1,0.2-0.1,0.5-0.2,0.7c0.2,0.2,0.4,0.3,0.6,0.5c0,0,0,0,0.1,0c0,0,0.1,0,0.1-0.1
	c0.2-0.2,0.5-0.5,0.5-0.8C11.2,11,10.8,10.9,10.5,10.9z M12.2,9c0-0.1-0.3-0.4-0.4-0.4c-0.2,0.1-0.4,0.2-0.6,0.4c0,0,0,0.2,0.1,0.2
	c0.2,0.1,0.4,0.2,0.7,0.3C12.1,9.4,12.3,9.2,12.2,9z M11.9,13.1c-0.1,0.2-0.3,0.4-0.3,0.6c0,0.1,0.2,0.4,0.3,0.4
	c0.3,0,0.5-0.2,0.9-0.3C12.3,13.5,12.1,13.3,11.9,13.1z M12.8,14.1c-0.2,0.2-0.6,0.3-0.5,0.7c0,0.1,0.2,0.4,0.3,0.4
	c0.2,0,0.5-0.1,0.7-0.2C13,14.5,12.9,14.3,12.8,14.1z M14.1,12.8c0.3-0.3,0.5-0.4,0.7-0.7c0.1-0.1-0.1-0.4-0.3-0.4
	c-0.2,0-0.4,0.1-0.7,0.1c0,0,0,0.1,0,0.1C14,12.1,14,12.4,14.1,12.8z M12.7,10.5c0.1,0,0.4-0.3,0.4-0.4c0-0.2-0.2-0.4-0.4-0.5
	c-0.2-0.1-0.6,0.3-0.6,0.5C12.1,10.5,12.5,10.5,12.7,10.5z M14,11.2c0.1-0.1,0-0.4-0.1-0.5c-0.1-0.1-0.3-0.1-0.5-0.1
	c-0.3,0.1-0.6,0.3-0.3,0.8C13.4,11.6,13.7,11.6,14,11.2z M10.8,12.8c0.1,0.1,0.3,0.3,0.4,0.3c0.3-0.1,0.6-0.3,0.7-0.7
	c-0.2-0.1-0.4-0.2-0.7-0.4C11,12.2,10.6,12.4,10.8,12.8z M13.7,14.9c-0.2,0.2-0.5,0.4-0.7,0.6c-0.1,0.1-0.1,0.5-0.1,0.5
	c0.1,0.1,0.4,0.1,0.6,0.1c0.2,0,0.3-0.2,0.4-0.3C13.9,15.6,13.8,15.3,13.7,14.9z M11,10.8c0.6,0.1,0.7-0.6,0.7-1c0,0,0-0.1,0-0.1
	c0,0-0.1-0.1-0.1-0.1c-0.4-0.1-1.2,0.1-1.1,0.7C10.6,10.6,10.7,10.8,11,10.8z M12.2,10.8c-0.3,0-0.8,0.4-0.8,0.6
	c0,0.3,0.2,0.5,0.4,0.6c0.2,0.1,0.8-0.4,0.8-0.7C12.6,11,12.5,10.8,12.2,10.8z M12.2,12.6c-0.1,0.3,0.2,0.7,0.5,0.7
	c0.3,0,0.9-0.5,1-0.7c0.1-0.3-0.2-0.7-0.6-0.7C12.8,11.8,12.2,12.2,12.2,12.6z M14.7,13.8c0-0.3-0.2-0.7-0.6-0.7
	c-0.3,0-0.9,0.5-1,0.8c0,0.3,0.2,0.7,0.5,0.7C14,14.6,14.6,14.1,14.7,13.8z M11.2,13.5c-0.3-0.2-0.6-0.3-0.8-0.5
	c-0.3,0.2-0.2,0.5-0.1,0.7c0.2,0.3,0.5,0.4,0.8,0.3c-0.2,0.3-0.4,0.6-0.1,0.9c0.2,0.3,0.6,0.2,0.9,0.2c-0.1,0.1-0.2,0.2-0.2,0.3
	c0,0.2,0,0.5,0.1,0.6c0.1,0.1,0.5,0.3,0.6,0.2c0.2-0.1,0.2-0.4,0.3-0.6c-0.3-0.2-0.5-0.4-0.8-0.6c0.1-0.3,0.1-0.6-0.3-0.7
	c-0.2-0.1-0.4-0.2-0.5-0.3C11.1,13.9,11.2,13.7,11.2,13.5z M14.7,10.4c-0.2-0.1-0.4-0.2-0.6-0.1c0.4,0.2,0,1.1,0.7,1
	c0,0.1,0.1,0.1,0.1,0.2c0.1,0.3,0.3,0.7,0.4,1c0,0.1-0.4,0.3-0.6,0.4c0,0,0,0.1,0,0.1c0.1,0.2,0.2,0.5,0.4,0.7
	c0.1,0,0.2-0.1,0.3-0.1c0,0.2,0.1,0.3,0.1,0.4c0,0.1,0.1,0.3,0.1,0.5c-0.6-0.3-0.8-0.2-1.2,0.3c-0.2,0.3-0.2,0.5,0,0.8
	c0.2,0.2,0.5,0.3,0.7,0.1c0.2-0.2,0.4-0.3,0.6-0.5c0.2,0.2,0.1,0.3-0.1,0.5c-0.2,0.3-0.7,0.4-0.5,0.9c-0.2,0-0.3,0-0.4-0.1
	c0-0.1,0-0.3,0-0.5c-0.2,0-0.3,0-0.4,0.1c-0.6,0.5-1.1,0.5-1.7,0c-0.1,0.1-0.2,0.1-0.2,0.2c-0.3,0.4-0.4,0.4-0.8,0.1
	c-1-1-2.1-2-3.2-2.9c-0.8-0.7-1.6-1.7-2.8-1.8c-0.5-0.1-0.9,0-1.4,0c0.3-0.2,0.6-0.4,0.9-0.4c0.2,0,0.4,0,0.6,0
	c0.9,0.1,1.8,0.2,2.6,0.4c-0.5-0.8-0.9-1.7-1.4-2.5C6.5,8.6,6.3,8,5.8,7.4C5.2,7,4.6,6.6,3.9,6.7c0.3-0.4,0.9-0.3,1.3-0.3
	C6,6.5,6.7,6.8,7.4,6.9C7.1,6,6.7,5.2,6.4,4.3C6.2,3.9,6.1,3.4,6,2.9c0-0.2-0.1-1.2-0.2-1.3C6,1.8,6.2,1.9,6.3,2
	c1.1,0.8,1.9,1.5,2.8,2.6C9.3,4,9.2,3.4,9.3,2.8c0.1-0.5,0.3-1.2,0.9-1.3c-0.5,1.8,0.6,3.8,1.9,5c1.3,1.2,2.4,2.5,3.5,3.9
	c0.2,0.3,0.2,0.5,0,0.7c-0.3,0-0.5,0.1-0.7,0.1C15,10.9,15,10.6,14.7,10.4z M10.7,8.7c-0.3,0-0.7,0.3-0.8,0.5c0,0.3,0.2,0.4,0.4,0.5
	c0.2,0,0.7-0.3,0.8-0.6C11.1,9,11,8.8,10.7,8.7z"/>
<path class="st0" d="M20.1,22.6c0.7-0.2,1.3-1.4,1.1-2.4c-0.1-0.6-0.3-1.3-0.6-1.8c-0.6-1.1-1.4-2.1-2.1-3.1c-1-1.4-1.8-2.9-1.9-4.6
	c0-0.3,0-0.6,0-1c-0.5,0.6-0.7,1.3-0.9,2c-0.2,0.9-0.2,1.9,0.1,2.8c0.2,0.9,0.8,1.3,1.3,2.2c0.9,1.6,0.9,3.5,1.6,5.1
	C19.2,22.5,19.7,22.7,20.1,22.6z"/>
<path class="st0" d="M11.7,16.6c-0.6,0-1.2-0.1-1.7-0.2c-2.4-0.6-4.7-1.8-7.3-1.5c3.3,0.2,6.5,1.5,8.9,3.7c1.9,1.6,3.5,3.8,5.9,4.6
	c0.4,0.1,1.8,0.3,2.1-0.3c0.2-0.5-1-1.7-1.2-2.2c-0.3-0.7-0.4-1.5-0.8-2.2c-0.2-0.3-0.5-0.7-0.8-0.9C15.5,16.6,13.5,16.7,11.7,16.6z
	"/>
<path class="st0" d="M17.8,9.7c-0.6,0.5-1,1-0.7,1.7c0.2,0.5,0.3,1,0.5,1.5C17.3,11.9,17.3,10.8,17.8,9.7z"/>
</svg>
