<?xml version="1.0" standalone="no"?>
<!DOCTYPE svg PUBLIC "-//W3C//DTD SVG 20010904//EN"
 "http://www.w3.org/TR/2001/REC-SVG-20010904/DTD/svg10.dtd">
<svg version="1.0" xmlns="http://www.w3.org/2000/svg"
 width="1084.000000pt" height="1084.000000pt" viewBox="0 0 1084.000000 1084.000000"
 preserveAspectRatio="xMidYMid meet">
<metadata>
Created by potrace 1.11, written by Peter Selinger 2001-2013
</metadata>
<g transform="translate(0.000000,1084.000000) scale(0.100000,-0.100000)"
fill="#000000" stroke="none">
<path d="M6918 8435 c-2 -2 -43 -5 -93 -9 -150 -10 -250 -20 -315 -30 -19 -3
-53 -8 -75 -10 -22 -3 -67 -10 -100 -16 -33 -7 -69 -14 -80 -15 -30 -5 -75
-14 -125 -25 -25 -6 -54 -12 -65 -15 -11 -2 -56 -13 -100 -25 -44 -12 -87 -23
-95 -25 -19 -4 -210 -64 -230 -72 -8 -3 -19 -7 -25 -8 -14 -4 -213 -83 -250
-99 -76 -35 -331 -160 -335 -165 -3 -3 -25 -17 -50 -30 -25 -13 -64 -37 -87
-53 -23 -15 -44 -28 -47 -28 -9 0 -118 -78 -151 -107 -7 -7 -17 -13 -22 -13
-4 0 -25 -16 -46 -35 -21 -19 -40 -35 -43 -35 -10 0 -171 -147 -250 -230 -86
-89 -107 -114 -171 -197 -57 -75 -69 -81 -118 -63 -14 5 -38 12 -53 15 -15 3
-38 8 -52 11 -14 3 -36 8 -50 10 -14 2 -61 11 -105 19 -133 26 -206 35 -400
51 -102 8 -455 11 -455 4 0 -3 -24 -5 -52 -4 -73 1 -328 -25 -358 -36 -3 -1
-9 -2 -14 -1 -5 1 -30 -3 -55 -9 -25 -6 -59 -12 -76 -15 -26 -4 -52 -9 -105
-20 -8 -2 -16 -4 -17 -5 -3 -3 -2 -2 -58 -15 -22 -5 -42 -9 -45 -10 -51 -15
-97 -28 -105 -29 -5 -1 -14 -4 -20 -7 -10 -6 -61 -22 -80 -24 -5 -1 -23 -7
-40 -14 -16 -6 -43 -16 -60 -22 -16 -6 -44 -18 -62 -25 -17 -8 -33 -14 -36
-14 -2 0 -30 -11 -61 -25 -31 -14 -58 -25 -61 -25 -13 -1 -305 -158 -315 -169
-7 -8 -42 -30 -60 -38 -8 -4 -17 -9 -20 -12 -13 -15 -80 -61 -88 -61 -6 0 -12
-3 -14 -7 -1 -5 -34 -33 -73 -64 -162 -130 -359 -349 -431 -479 -10 -19 -21
-37 -24 -40 -12 -11 -90 -170 -84 -170 4 0 -1 -9 -11 -20 -10 -11 -15 -20 -12
-20 3 0 -5 -31 -19 -70 -13 -38 -26 -80 -28 -92 -3 -13 -5 -24 -7 -25 -2 -4
-4 -13 -13 -66 -4 -27 -10 -59 -13 -70 -3 -12 -7 -650 -8 -1417 -2 -767 -3
-1401 -4 -1407 -1 -7 -12 -13 -26 -13 -14 0 -41 -7 -61 -15 -19 -8 -37 -14
-39 -14 -14 -1 -62 -32 -77 -49 -23 -29 -42 -64 -45 -87 l-3 -21 2962 2 c1630
2 2982 3 3006 4 23 0 48 0 55 0 6 0 56 1 110 3 53 1 97 -2 97 -6 0 -5 5 -5 11
-1 16 10 159 11 159 1 0 -4 5 -5 12 -1 17 11 138 11 138 1 0 -5 6 -5 13 0 17
10 129 10 145 0 7 -6 12 -6 12 -1 0 11 131 10 148 0 7 -4 12 -4 12 1 0 4 33 7
73 6 88 -4 76 -4 165 0 39 1 72 -2 72 -7 0 -5 5 -5 13 1 15 10 127 10 145 0 6
-5 12 -5 12 0 0 4 34 8 75 8 41 0 75 -4 75 -8 0 -5 5 -5 12 -1 17 11 178 11
178 0 0 -5 6 -4 13 1 6 5 71 7 142 6 72 -2 135 -3 140 -3 6 0 43 1 83 3 39 1
72 -2 72 -7 0 -5 6 -4 13 1 6 5 44 7 82 6 88 -4 77 -4 163 0 39 1 72 -2 72 -6
0 -5 5 -5 12 -1 17 11 138 11 138 1 0 -5 6 -5 12 -1 14 9 148 12 148 4 0 -3 9
-6 20 -6 11 0 20 3 20 6 0 7 135 4 149 -4 6 -4 11 -4 11 1 0 10 133 9 149 -1
6 -4 11 -4 11 1 0 10 133 9 149 -1 6 -4 11 -4 11 1 0 10 271 10 288 -1 6 -4
12 -4 12 1 0 10 121 10 138 -1 7 -4 12 -4 12 1 0 4 33 7 73 6 86 -4 78 -4 147
0 30 2 65 -1 77 -5 12 -4 24 -4 27 0 6 9 128 8 144 -2 7 -4 12 -4 12 1 0 4 33
7 73 6 88 -4 76 -4 165 0 39 1 72 -2 72 -7 0 -4 6 -4 13 1 6 5 36 8 65 7 64
-3 73 9 47 67 -35 76 -145 149 -249 164 -44 7 -66 30 -51 54 3 5 1 12 -5 16
-6 3 -7 14 -2 23 6 13 9 3128 3 3277 -1 17 -1 37 0 45 1 8 -2 38 -5 65 -4 28
-9 66 -11 85 -5 38 -20 123 -28 155 -3 11 -8 34 -12 50 -13 53 -77 227 -108
295 -31 64 -125 230 -136 240 -3 3 -12 17 -20 33 -8 15 -18 27 -23 27 -4 0 -8
6 -8 14 0 8 -3 16 -8 18 -4 2 -21 22 -38 45 -69 95 -234 267 -349 364 -22 19
-45 39 -51 44 -36 31 -89 71 -164 124 -47 33 -90 64 -95 69 -27 23 -271 159
-388 216 -183 90 -425 185 -602 236 -45 13 -259 69 -290 76 -29 6 -175 35
-205 40 -67 11 -93 15 -128 19 -20 3 -48 7 -62 10 -46 8 -107 15 -290 31 -63
5 -577 13 -582 9z"/>
</g>
</svg>
