<?xml version="1.0" encoding="utf-8"?>
<!-- Generator: Adobe Illustrator 22.1.0, SVG Export Plug-In . SVG Version: 6.00 Build 0)  -->
<svg version="1.1" id="Ebene_1" xmlns="http://www.w3.org/2000/svg" xmlns:xlink="http://www.w3.org/1999/xlink" x="0px" y="0px"
	 viewBox="0 0 24 24" style="enable-background:new 0 0 24 24;" xml:space="preserve">
<style type="text/css">
	.st0{fill:#FFFFFF;}
</style>
<path class="st0" d="M6.7,5h10.6l0.3,1H6.4C6.4,6,6.7,5,6.7,5z M6.1,2h11.8l2,6H22l-2.7-8H4.7L2,8h2.1C4.1,8,6.1,2,6.1,2z M7.4,3
	L7,4h10l-0.3-1C16.6,3,7.4,3,7.4,3z M5.7,8h12.6L18,7H6L5.7,8z M1.5,16L0,10h24l-1.5,6H1.5z M10,13h4v-1h-4V13z M24,18l-1.5,6h-21
	L0,18H24z M14,20h-4v1h4V20z"/>
</svg>
